<?xml version="1.0" encoding="UTF-8"?>
<svg xmlns="http://www.w3.org/2000/svg" xmlns:xlink="http://www.w3.org/1999/xlink" width="19px" height="16px" viewBox="0 0 18 16" version="1.1">
<g id="surface1">
<path style=" stroke:none;fill-rule:nonzero;fill:rgb(0.784314%,6.666667%,13.333334%);fill-opacity:1;" d="M 10.265625 0.476562 C 11.09375 0.859375 11.804688 1.429688 12.488281 2.035156 C 12.515625 2.0625 12.546875 2.089844 12.578125 2.113281 C 12.804688 2.320312 13.023438 2.53125 13.238281 2.75 C 13.269531 2.785156 13.304688 2.820312 13.335938 2.851562 C 13.5625 3.085938 13.769531 3.328125 13.964844 3.585938 C 14.117188 3.785156 14.25 3.816406 14.484375 3.871094 C 15.382812 4.09375 16.03125 4.578125 16.679688 5.238281 C 16.730469 5.285156 16.730469 5.285156 16.777344 5.332031 C 17.191406 5.773438 17.402344 6.335938 17.402344 6.941406 C 17.394531 7.402344 17.234375 7.71875 16.925781 8.050781 C 16.410156 8.523438 15.6875 8.621094 15.03125 8.726562 C 15.023438 8.789062 15.015625 8.847656 15.007812 8.914062 C 14.9375 9.453125 14.832031 9.957031 14.65625 10.472656 C 14.640625 10.519531 14.625 10.570312 14.605469 10.617188 C 14.632812 10.617188 14.660156 10.617188 14.6875 10.613281 C 15.933594 10.574219 15.933594 10.574219 16.355469 10.980469 C 16.554688 11.214844 16.609375 11.414062 16.601562 11.722656 C 16.570312 11.933594 16.457031 12.0625 16.3125 12.207031 C 15.953125 12.417969 15.523438 12.394531 15.125 12.417969 C 13.726562 12.511719 12.609375 13.296875 11.652344 14.292969 C 11.628906 14.316406 11.605469 14.339844 11.578125 14.367188 C 11.460938 14.492188 11.339844 14.617188 11.222656 14.742188 C 10.894531 15.09375 10.550781 15.417969 10.050781 15.433594 C 9.804688 15.429688 9.613281 15.390625 9.425781 15.222656 C 9.1875 14.902344 9.199219 14.496094 9.1875 14.109375 C 9.15625 14.109375 9.121094 14.109375 9.089844 14.113281 C 8.335938 14.132812 7.707031 14.105469 7 13.835938 C 6.945312 13.816406 6.945312 13.816406 6.890625 13.796875 C 6.824219 13.769531 6.753906 13.742188 6.6875 13.714844 C 6.449219 13.617188 6.285156 13.617188 6.03125 13.671875 C 5.644531 13.855469 5.328125 14.160156 5.019531 14.457031 C 4.761719 14.707031 4.511719 14.914062 4.195312 15.078125 C 4.15625 15.097656 4.117188 15.117188 4.078125 15.140625 C 3.777344 15.28125 3.488281 15.328125 3.15625 15.273438 C 2.878906 15.164062 2.660156 15 2.484375 14.75 C 2.40625 14.507812 2.429688 14.316406 2.515625 14.082031 C 2.664062 13.785156 2.914062 13.5625 3.148438 13.332031 C 3.445312 13.035156 3.734375 12.738281 4.003906 12.414062 C 4.296875 12.082031 4.578125 11.828125 4.996094 11.683594 C 5.109375 11.679688 5.21875 11.679688 5.332031 11.683594 C 5.394531 11.683594 5.453125 11.683594 5.515625 11.683594 C 5.585938 11.683594 5.585938 11.683594 5.65625 11.683594 C 5.644531 11.625 5.632812 11.566406 5.625 11.503906 C 5.398438 10.148438 5.582031 8.898438 6.296875 7.726562 C 6.527344 7.40625 6.824219 7.144531 7.113281 6.886719 C 7.148438 6.855469 7.179688 6.828125 7.214844 6.796875 C 8.082031 6.074219 9.382812 5.917969 10.460938 6.027344 C 10.761719 6.0625 11.058594 6.109375 11.355469 6.15625 C 11.355469 5.886719 11.355469 5.613281 11.355469 5.332031 C 11.296875 5.3125 11.242188 5.289062 11.179688 5.269531 C 10.960938 5.1875 10.742188 5.105469 10.523438 5.023438 C 10.429688 4.988281 10.332031 4.953125 10.238281 4.917969 C 9.636719 4.695312 9.042969 4.464844 8.449219 4.214844 C 8.289062 4.148438 8.128906 4.082031 7.96875 4.019531 C 7.773438 3.9375 7.585938 3.835938 7.398438 3.734375 C 7.363281 3.714844 7.328125 3.695312 7.289062 3.675781 C 6.796875 3.402344 6.117188 3.007812 5.9375 2.425781 C 5.914062 2.238281 5.921875 2.078125 5.984375 1.898438 C 6.238281 1.613281 6.621094 1.617188 6.976562 1.601562 C 7.59375 1.597656 8.144531 1.769531 8.726562 1.960938 C 8.8125 1.992188 8.8125 1.992188 8.90625 1.988281 C 8.882812 1.964844 8.855469 1.941406 8.832031 1.917969 C 8.613281 1.699219 8.4375 1.488281 8.292969 1.210938 C 8.273438 1.171875 8.253906 1.132812 8.230469 1.09375 C 8.183594 0.90625 8.164062 0.726562 8.199219 0.535156 C 8.683594 -0.117188 9.652344 0.203125 10.265625 0.476562 Z M 10.265625 0.476562 "/>
<path style=" stroke:none;fill-rule:nonzero;fill:rgb(96.862745%,98.823529%,83.529413%);fill-opacity:1;" d="M 10.265625 0.476562 C 11.09375 0.859375 11.804688 1.429688 12.488281 2.035156 C 12.515625 2.0625 12.546875 2.089844 12.578125 2.113281 C 12.804688 2.320312 13.023438 2.53125 13.238281 2.75 C 13.269531 2.785156 13.304688 2.820312 13.335938 2.851562 C 13.5625 3.085938 13.769531 3.328125 13.964844 3.585938 C 14.117188 3.785156 14.25 3.816406 14.484375 3.871094 C 15.382812 4.09375 16.03125 4.578125 16.679688 5.238281 C 16.730469 5.285156 16.730469 5.285156 16.777344 5.332031 C 17.191406 5.773438 17.402344 6.335938 17.402344 6.941406 C 17.394531 7.402344 17.234375 7.71875 16.925781 8.050781 C 16.410156 8.523438 15.6875 8.621094 15.03125 8.726562 C 15.023438 8.789062 15.015625 8.847656 15.007812 8.914062 C 14.9375 9.453125 14.832031 9.957031 14.65625 10.472656 C 14.640625 10.519531 14.625 10.570312 14.605469 10.617188 C 14.632812 10.617188 14.660156 10.617188 14.6875 10.613281 C 15.933594 10.574219 15.933594 10.574219 16.355469 10.980469 C 16.554688 11.214844 16.609375 11.414062 16.601562 11.722656 C 16.570312 11.933594 16.457031 12.0625 16.3125 12.207031 C 15.953125 12.417969 15.523438 12.394531 15.125 12.417969 C 13.726562 12.511719 12.609375 13.296875 11.652344 14.292969 C 11.628906 14.316406 11.605469 14.339844 11.578125 14.367188 C 11.460938 14.492188 11.339844 14.617188 11.222656 14.742188 C 10.894531 15.09375 10.550781 15.417969 10.050781 15.433594 C 9.804688 15.429688 9.613281 15.390625 9.425781 15.222656 C 9.1875 14.902344 9.199219 14.496094 9.1875 14.109375 C 9.15625 14.109375 9.121094 14.109375 9.089844 14.113281 C 8.335938 14.132812 7.707031 14.105469 7 13.835938 C 6.945312 13.816406 6.945312 13.816406 6.890625 13.796875 C 6.824219 13.769531 6.753906 13.742188 6.6875 13.714844 C 6.449219 13.617188 6.285156 13.617188 6.03125 13.671875 C 5.644531 13.855469 5.328125 14.160156 5.019531 14.457031 C 4.761719 14.707031 4.511719 14.914062 4.195312 15.078125 C 4.15625 15.097656 4.117188 15.117188 4.078125 15.140625 C 3.777344 15.28125 3.488281 15.328125 3.15625 15.273438 C 2.878906 15.164062 2.660156 15 2.484375 14.75 C 2.40625 14.507812 2.429688 14.316406 2.515625 14.082031 C 2.664062 13.785156 2.914062 13.5625 3.148438 13.332031 C 3.445312 13.035156 3.734375 12.738281 4.003906 12.414062 C 4.296875 12.082031 4.578125 11.828125 4.996094 11.683594 C 5.109375 11.679688 5.21875 11.679688 5.332031 11.683594 C 5.394531 11.683594 5.453125 11.683594 5.515625 11.683594 C 5.585938 11.683594 5.585938 11.683594 5.65625 11.683594 C 5.644531 11.625 5.632812 11.566406 5.625 11.503906 C 5.398438 10.148438 5.582031 8.898438 6.296875 7.726562 C 6.527344 7.40625 6.824219 7.144531 7.113281 6.886719 C 7.148438 6.855469 7.179688 6.828125 7.214844 6.796875 C 8.082031 6.074219 9.382812 5.917969 10.460938 6.027344 C 10.761719 6.0625 11.058594 6.109375 11.355469 6.15625 C 11.355469 5.886719 11.355469 5.613281 11.355469 5.332031 C 11.296875 5.3125 11.242188 5.289062 11.179688 5.269531 C 10.960938 5.1875 10.742188 5.105469 10.523438 5.023438 C 10.429688 4.988281 10.332031 4.953125 10.238281 4.917969 C 9.636719 4.695312 9.042969 4.464844 8.449219 4.214844 C 8.289062 4.148438 8.128906 4.082031 7.96875 4.019531 C 7.773438 3.9375 7.585938 3.835938 7.398438 3.734375 C 7.363281 3.714844 7.328125 3.695312 7.289062 3.675781 C 6.796875 3.402344 6.117188 3.007812 5.9375 2.425781 C 5.914062 2.238281 5.921875 2.078125 5.984375 1.898438 C 6.238281 1.613281 6.621094 1.617188 6.976562 1.601562 C 7.59375 1.597656 8.144531 1.769531 8.726562 1.960938 C 8.8125 1.992188 8.8125 1.992188 8.90625 1.988281 C 8.882812 1.964844 8.855469 1.941406 8.832031 1.917969 C 8.613281 1.699219 8.4375 1.488281 8.292969 1.210938 C 8.273438 1.171875 8.253906 1.132812 8.230469 1.09375 C 8.183594 0.90625 8.164062 0.726562 8.199219 0.535156 C 8.683594 -0.117188 9.652344 0.203125 10.265625 0.476562 Z M 8.433594 0.582031 C 8.378906 0.820312 8.488281 1.058594 8.601562 1.261719 C 9.039062 1.949219 9.761719 2.335938 10.421875 2.761719 C 10.90625 3.074219 11.386719 3.394531 11.863281 3.726562 C 11.910156 3.757812 11.910156 3.757812 11.957031 3.792969 C 12.136719 3.917969 12.289062 4.054688 12.441406 4.21875 C 12.050781 4.027344 11.683594 3.8125 11.316406 3.582031 C 9.300781 2.304688 9.300781 2.304688 7.019531 1.832031 C 6.980469 1.828125 6.941406 1.828125 6.898438 1.828125 C 6.636719 1.824219 6.449219 1.859375 6.21875 1.988281 C 6.152344 2.125 6.160156 2.222656 6.171875 2.375 C 6.886719 3.753906 9.128906 4.269531 10.445312 4.757812 C 10.601562 4.816406 10.757812 4.875 10.914062 4.9375 C 11.007812 4.972656 11.101562 5.007812 11.195312 5.042969 C 11.253906 5.066406 11.253906 5.066406 11.316406 5.089844 C 11.496094 5.160156 11.496094 5.160156 11.6875 5.1875 C 11.679688 5.21875 11.671875 5.246094 11.664062 5.277344 C 11.585938 5.671875 11.582031 6.046875 11.589844 6.449219 C 11.550781 6.433594 11.550781 6.433594 11.507812 6.421875 C 10.316406 6.046875 8.933594 6.101562 7.8125 6.667969 C 7.476562 6.859375 7.199219 7.089844 6.925781 7.371094 C 6.878906 7.417969 6.878906 7.417969 6.828125 7.46875 C 6.113281 8.242188 5.742188 9.367188 5.746094 10.421875 C 5.757812 10.839844 5.808594 11.238281 5.90625 11.640625 C 5.9375 11.773438 5.941406 11.890625 5.9375 12.023438 C 5.75 12.023438 5.75 12.023438 5.621094 11.953125 C 5.398438 11.847656 5.191406 11.824219 4.957031 11.910156 C 4.691406 12.035156 4.507812 12.210938 4.308594 12.425781 C 4.28125 12.453125 4.25 12.484375 4.21875 12.515625 C 4.074219 12.671875 3.933594 12.828125 3.796875 12.992188 C 3.582031 13.246094 3.34375 13.476562 3.109375 13.707031 C 2.90625 13.910156 2.769531 14.070312 2.6875 14.351562 C 2.6875 14.546875 2.714844 14.65625 2.808594 14.824219 C 2.996094 15.007812 3.175781 15.070312 3.429688 15.101562 C 4.09375 15.066406 4.597656 14.519531 5.050781 14.078125 C 5.410156 13.730469 5.824219 13.402344 6.335938 13.414062 C 6.566406 13.445312 6.777344 13.535156 6.992188 13.617188 C 7.597656 13.855469 8.121094 13.929688 8.773438 13.921875 C 8.835938 13.921875 8.898438 13.921875 8.964844 13.917969 C 9.117188 13.917969 9.269531 13.917969 9.425781 13.914062 C 9.425781 13.996094 9.425781 13.996094 9.429688 14.082031 C 9.4375 14.636719 9.4375 14.636719 9.660156 15.128906 C 9.839844 15.238281 9.96875 15.25 10.179688 15.222656 C 10.65625 15.070312 10.964844 14.679688 11.300781 14.316406 C 12.445312 13.089844 13.65625 12.296875 15.34375 12.210938 C 15.695312 12.1875 16.007812 12.164062 16.28125 11.917969 C 16.375 11.738281 16.402344 11.589844 16.351562 11.394531 C 16.1875 11.117188 15.988281 10.957031 15.691406 10.859375 C 15.191406 10.742188 14.683594 10.835938 14.183594 10.910156 C 14.199219 10.875 14.21875 10.835938 14.238281 10.800781 C 14.578125 10.082031 14.734375 9.378906 14.796875 8.582031 C 15.007812 8.53125 15.214844 8.484375 15.429688 8.441406 C 16.03125 8.320312 16.582031 8.132812 16.976562 7.617188 C 17.175781 7.25 17.222656 6.828125 17.121094 6.417969 C 16.765625 5.4375 15.964844 4.769531 15.078125 4.316406 C 15.042969 4.296875 15.003906 4.277344 14.964844 4.257812 C 14.636719 4.097656 14.3125 4.003906 13.949219 4.023438 C 13.9375 4 13.925781 3.972656 13.914062 3.945312 C 13.832031 3.792969 13.726562 3.664062 13.617188 3.535156 C 13.59375 3.503906 13.570312 3.476562 13.542969 3.445312 C 13.050781 2.863281 12.519531 2.3125 11.921875 1.84375 C 11.878906 1.804688 11.832031 1.769531 11.785156 1.730469 C 10.929688 1.019531 9.941406 0.382812 8.820312 0.363281 C 8.636719 0.394531 8.558594 0.445312 8.433594 0.582031 Z M 8.433594 0.582031 "/>
<path style=" stroke:none;fill-rule:nonzero;fill:rgb(96.470588%,96.078432%,76.47059%);fill-opacity:1;" d="M 9.800781 7.128906 C 9.832031 7.0625 9.863281 7 9.894531 6.933594 C 9.988281 6.933594 10.082031 6.933594 10.179688 6.933594 C 10.179688 7.445312 10.179688 7.957031 10.179688 8.484375 C 10.085938 8.484375 9.992188 8.484375 9.894531 8.484375 C 9.878906 8.433594 9.859375 8.378906 9.84375 8.328125 C 9.671875 7.792969 9.671875 7.792969 9.328125 7.371094 C 9.304688 7.347656 9.28125 7.328125 9.257812 7.308594 C 9.019531 7.136719 8.761719 7.132812 8.480469 7.175781 C 8.28125 7.238281 8.171875 7.335938 8.058594 7.519531 C 7.96875 7.785156 8.003906 8.066406 8.109375 8.316406 C 8.226562 8.472656 8.367188 8.542969 8.539062 8.625 C 8.570312 8.640625 8.601562 8.65625 8.636719 8.671875 C 8.910156 8.808594 9.1875 8.933594 9.464844 9.054688 C 9.601562 9.113281 9.722656 9.175781 9.847656 9.261719 C 9.863281 9.234375 9.878906 9.210938 9.898438 9.1875 C 10.125 8.851562 10.4375 8.527344 10.835938 8.4375 C 11.378906 8.371094 11.769531 8.492188 12.25 8.726562 C 12.28125 8.664062 12.3125 8.597656 12.34375 8.535156 C 12.4375 8.535156 12.53125 8.535156 12.628906 8.535156 C 12.628906 9.046875 12.628906 9.558594 12.628906 10.085938 C 12.535156 10.085938 12.441406 10.085938 12.34375 10.085938 C 12.328125 10.03125 12.3125 9.980469 12.292969 9.925781 C 12.125 9.394531 12.125 9.394531 11.78125 8.96875 C 11.757812 8.949219 11.730469 8.929688 11.707031 8.90625 C 11.46875 8.738281 11.210938 8.734375 10.933594 8.777344 C 10.730469 8.839844 10.621094 8.9375 10.507812 9.121094 C 10.417969 9.382812 10.453125 9.667969 10.558594 9.917969 C 10.679688 10.074219 10.816406 10.144531 10.988281 10.222656 C 11.019531 10.242188 11.054688 10.257812 11.089844 10.273438 C 11.292969 10.375 11.496094 10.464844 11.703125 10.554688 C 12.144531 10.746094 12.535156 10.949219 12.769531 11.394531 C 12.882812 11.742188 12.871094 12.195312 12.726562 12.53125 C 12.484375 12.945312 12.164062 13.179688 11.710938 13.304688 C 11.1875 13.398438 10.761719 13.335938 10.273438 13.140625 C 10.210938 13.121094 10.148438 13.105469 10.082031 13.089844 C 10.050781 13.140625 10.023438 13.1875 9.988281 13.238281 C 9.894531 13.238281 9.804688 13.238281 9.707031 13.238281 C 9.691406 12.707031 9.675781 12.179688 9.660156 11.636719 C 9.753906 11.636719 9.847656 11.636719 9.941406 11.636719 C 9.953125 11.671875 9.96875 11.707031 9.980469 11.746094 C 10.136719 12.164062 10.339844 12.636719 10.730469 12.878906 C 10.867188 12.9375 10.972656 12.980469 11.121094 12.992188 C 11.152344 12.996094 11.183594 13 11.214844 13.003906 C 11.5 13.019531 11.730469 12.960938 11.96875 12.800781 C 12.140625 12.585938 12.132812 12.335938 12.125 12.070312 C 12.101562 11.855469 12.050781 11.753906 11.921875 11.585938 C 11.691406 11.40625 11.445312 11.308594 11.175781 11.203125 C 10.859375 11.078125 10.566406 10.941406 10.273438 10.761719 C 10.261719 10.820312 10.261719 10.820312 10.253906 10.878906 C 10.195312 11.144531 9.964844 11.359375 9.753906 11.511719 C 9.285156 11.761719 8.734375 11.820312 8.222656 11.691406 C 8.085938 11.644531 7.953125 11.59375 7.820312 11.539062 C 7.757812 11.523438 7.695312 11.503906 7.632812 11.492188 C 7.601562 11.539062 7.570312 11.585938 7.539062 11.636719 C 7.445312 11.636719 7.351562 11.636719 7.257812 11.636719 C 7.242188 11.109375 7.226562 10.582031 7.210938 10.035156 C 7.300781 10.035156 7.394531 10.035156 7.492188 10.035156 C 7.503906 10.070312 7.515625 10.109375 7.53125 10.144531 C 7.6875 10.566406 7.886719 11.035156 8.277344 11.277344 C 8.417969 11.339844 8.519531 11.378906 8.671875 11.394531 C 8.699219 11.398438 8.730469 11.398438 8.765625 11.402344 C 9.046875 11.417969 9.277344 11.363281 9.519531 11.199219 C 9.691406 10.984375 9.683594 10.738281 9.675781 10.46875 C 9.652344 10.257812 9.601562 10.15625 9.472656 9.988281 C 9.242188 9.808594 8.996094 9.710938 8.730469 9.605469 C 8.222656 9.402344 7.757812 9.207031 7.445312 8.726562 C 7.3125 8.414062 7.292969 8.050781 7.390625 7.722656 C 7.566406 7.324219 7.863281 7.03125 8.261719 6.867188 C 8.832031 6.722656 9.289062 6.878906 9.800781 7.128906 Z M 9.800781 7.128906 "/>
<path style=" stroke:none;fill-rule:nonzero;fill:rgb(1.176471%,5.882353%,17.647059%);fill-opacity:1;" d="M 2.292969 6.332031 C 2.355469 6.332031 2.355469 6.332031 2.414062 6.332031 C 2.550781 6.328125 2.683594 6.332031 2.816406 6.332031 C 2.910156 6.332031 3.003906 6.328125 3.097656 6.328125 C 3.292969 6.328125 3.488281 6.328125 3.679688 6.328125 C 3.929688 6.332031 4.179688 6.328125 4.429688 6.328125 C 4.625 6.328125 4.816406 6.328125 5.007812 6.328125 C 5.101562 6.328125 5.191406 6.328125 5.285156 6.328125 C 5.414062 6.324219 5.542969 6.328125 5.671875 6.328125 C 5.707031 6.328125 5.746094 6.328125 5.785156 6.324219 C 5.960938 6.328125 6.066406 6.34375 6.21875 6.441406 C 6.347656 6.585938 6.382812 6.6875 6.410156 6.886719 C 6.34375 7.109375 6.28125 7.257812 6.078125 7.371094 C 5.941406 7.382812 5.8125 7.390625 5.675781 7.390625 C 5.617188 7.390625 5.617188 7.390625 5.554688 7.390625 C 5.421875 7.390625 5.285156 7.390625 5.152344 7.390625 C 5.058594 7.390625 4.964844 7.390625 4.875 7.390625 C 4.679688 7.390625 4.484375 7.390625 4.289062 7.390625 C 4.039062 7.390625 3.789062 7.390625 3.539062 7.394531 C 3.347656 7.394531 3.152344 7.394531 2.960938 7.394531 C 2.871094 7.394531 2.777344 7.394531 2.6875 7.394531 C 2.558594 7.394531 2.429688 7.394531 2.300781 7.394531 C 2.261719 7.394531 2.222656 7.394531 2.183594 7.394531 C 1.9375 7.390625 1.796875 7.34375 1.601562 7.175781 C 1.515625 6.996094 1.53125 6.769531 1.585938 6.578125 C 1.773438 6.332031 2.011719 6.332031 2.292969 6.332031 Z M 2.292969 6.332031 "/>
<path style=" stroke:none;fill-rule:nonzero;fill:rgb(0.784314%,6.27451%,12.941177%);fill-opacity:1;" d="M 1.519531 10.167969 C 1.609375 10.167969 1.609375 10.167969 1.699219 10.167969 C 1.761719 10.167969 1.824219 10.167969 1.890625 10.167969 C 1.953125 10.167969 2.019531 10.167969 2.085938 10.167969 C 2.222656 10.167969 2.359375 10.167969 2.5 10.167969 C 2.675781 10.167969 2.851562 10.164062 3.027344 10.164062 C 3.160156 10.164062 3.296875 10.164062 3.433594 10.164062 C 3.496094 10.164062 3.5625 10.164062 3.625 10.164062 C 3.71875 10.164062 3.808594 10.164062 3.898438 10.164062 C 3.949219 10.164062 4 10.164062 4.054688 10.164062 C 4.25 10.1875 4.371094 10.273438 4.515625 10.410156 C 4.597656 10.574219 4.605469 10.730469 4.570312 10.910156 C 4.476562 11.078125 4.378906 11.183594 4.195312 11.25 C 4.097656 11.253906 4.003906 11.257812 3.910156 11.257812 C 3.824219 11.257812 3.824219 11.257812 3.734375 11.257812 C 3.667969 11.257812 3.605469 11.257812 3.542969 11.261719 C 3.492188 11.261719 3.492188 11.261719 3.445312 11.261719 C 3.273438 11.261719 3.101562 11.261719 2.933594 11.261719 C 2.757812 11.261719 2.582031 11.265625 2.40625 11.265625 C 2.269531 11.269531 2.136719 11.269531 2 11.269531 C 1.933594 11.269531 1.871094 11.269531 1.804688 11.269531 C 1.175781 11.277344 1.175781 11.277344 0.894531 11.054688 C 0.78125 10.902344 0.777344 10.757812 0.800781 10.570312 C 0.882812 10.410156 0.9375 10.304688 1.09375 10.222656 C 1.242188 10.175781 1.367188 10.167969 1.519531 10.167969 Z M 1.519531 10.167969 "/>
<path style=" stroke:none;fill-rule:nonzero;fill:rgb(1.176471%,6.27451%,16.078432%);fill-opacity:1;" d="M 2.792969 8.28125 C 2.871094 8.28125 2.871094 8.28125 2.953125 8.28125 C 3.007812 8.28125 3.0625 8.28125 3.121094 8.28125 C 3.179688 8.277344 3.238281 8.277344 3.296875 8.277344 C 3.421875 8.277344 3.542969 8.277344 3.667969 8.277344 C 3.855469 8.277344 4.042969 8.273438 4.230469 8.273438 C 4.347656 8.269531 4.46875 8.269531 4.585938 8.269531 C 4.671875 8.269531 4.671875 8.269531 4.757812 8.269531 C 5.144531 8.269531 5.144531 8.269531 5.335938 8.378906 C 5.445312 8.515625 5.464844 8.617188 5.484375 8.789062 C 5.460938 9.027344 5.390625 9.09375 5.230469 9.261719 C 5.113281 9.320312 5.027344 9.316406 4.894531 9.316406 C 4.820312 9.320312 4.820312 9.320312 4.746094 9.320312 C 4.664062 9.320312 4.664062 9.320312 4.582031 9.320312 C 4.496094 9.320312 4.496094 9.320312 4.410156 9.320312 C 4.292969 9.324219 4.175781 9.324219 4.058594 9.324219 C 3.878906 9.324219 3.695312 9.328125 3.515625 9.328125 C 3.402344 9.328125 3.289062 9.328125 3.171875 9.328125 C 3.089844 9.332031 3.089844 9.332031 3.007812 9.332031 C 2.714844 9.332031 2.53125 9.320312 2.308594 9.113281 C 2.207031 8.988281 2.210938 8.886719 2.21875 8.726562 C 2.25 8.542969 2.304688 8.453125 2.449219 8.339844 C 2.570312 8.277344 2.660156 8.285156 2.792969 8.28125 Z M 2.792969 8.28125 "/>
<path style=" stroke:none;fill-rule:nonzero;fill:rgb(98.431373%,99.215686%,80.000001%);fill-opacity:1;" d="M 2.292969 6.332031 C 2.355469 6.332031 2.355469 6.332031 2.414062 6.332031 C 2.550781 6.328125 2.683594 6.332031 2.816406 6.332031 C 2.910156 6.332031 3.003906 6.328125 3.097656 6.328125 C 3.292969 6.328125 3.488281 6.328125 3.679688 6.328125 C 3.929688 6.332031 4.179688 6.328125 4.429688 6.328125 C 4.625 6.328125 4.816406 6.328125 5.007812 6.328125 C 5.101562 6.328125 5.191406 6.328125 5.285156 6.328125 C 5.414062 6.324219 5.542969 6.328125 5.671875 6.328125 C 5.707031 6.328125 5.746094 6.328125 5.785156 6.324219 C 5.960938 6.328125 6.066406 6.34375 6.21875 6.441406 C 6.347656 6.585938 6.382812 6.6875 6.410156 6.886719 C 6.34375 7.109375 6.28125 7.257812 6.078125 7.371094 C 5.941406 7.382812 5.8125 7.390625 5.675781 7.390625 C 5.617188 7.390625 5.617188 7.390625 5.554688 7.390625 C 5.421875 7.390625 5.285156 7.390625 5.152344 7.390625 C 5.058594 7.390625 4.964844 7.390625 4.875 7.390625 C 4.679688 7.390625 4.484375 7.390625 4.289062 7.390625 C 4.039062 7.390625 3.789062 7.390625 3.539062 7.394531 C 3.347656 7.394531 3.152344 7.394531 2.960938 7.394531 C 2.871094 7.394531 2.777344 7.394531 2.6875 7.394531 C 2.558594 7.394531 2.429688 7.394531 2.300781 7.394531 C 2.261719 7.394531 2.222656 7.394531 2.183594 7.394531 C 1.9375 7.390625 1.796875 7.34375 1.601562 7.175781 C 1.515625 6.996094 1.53125 6.769531 1.585938 6.578125 C 1.773438 6.332031 2.011719 6.332031 2.292969 6.332031 Z M 1.859375 6.632812 C 1.773438 6.742188 1.773438 6.742188 1.792969 6.914062 C 1.824219 7.089844 1.824219 7.089844 1.980469 7.175781 C 2.109375 7.183594 2.230469 7.191406 2.359375 7.1875 C 2.417969 7.1875 2.417969 7.1875 2.476562 7.191406 C 2.605469 7.191406 2.734375 7.191406 2.863281 7.191406 C 2.953125 7.191406 3.042969 7.191406 3.132812 7.191406 C 3.320312 7.191406 3.507812 7.191406 3.691406 7.191406 C 3.933594 7.191406 4.171875 7.191406 4.414062 7.191406 C 4.597656 7.195312 4.78125 7.195312 4.964844 7.191406 C 5.054688 7.191406 5.144531 7.195312 5.230469 7.195312 C 5.355469 7.195312 5.480469 7.195312 5.601562 7.195312 C 5.640625 7.195312 5.675781 7.195312 5.714844 7.195312 C 5.90625 7.195312 5.90625 7.195312 6.078125 7.113281 C 6.160156 6.972656 6.140625 6.847656 6.125 6.691406 C 6.082031 6.601562 6.082031 6.601562 5.984375 6.546875 C 5.855469 6.53125 5.734375 6.523438 5.605469 6.527344 C 5.566406 6.527344 5.527344 6.523438 5.484375 6.523438 C 5.359375 6.523438 5.230469 6.523438 5.101562 6.523438 C 5.011719 6.523438 4.921875 6.523438 4.832031 6.523438 C 4.648438 6.523438 4.460938 6.523438 4.273438 6.523438 C 4.03125 6.523438 3.792969 6.523438 3.554688 6.523438 C 3.371094 6.519531 3.1875 6.519531 3 6.519531 C 2.914062 6.519531 2.824219 6.519531 2.738281 6.519531 C 2.613281 6.519531 2.488281 6.519531 2.367188 6.519531 C 2.3125 6.519531 2.3125 6.519531 2.253906 6.519531 C 2.089844 6.523438 1.996094 6.535156 1.859375 6.632812 Z M 1.859375 6.632812 "/>
<path style=" stroke:none;fill-rule:nonzero;fill:rgb(98.039216%,99.215686%,81.568629%);fill-opacity:1;" d="M 1.519531 10.167969 C 1.609375 10.167969 1.609375 10.167969 1.699219 10.167969 C 1.761719 10.167969 1.824219 10.167969 1.890625 10.167969 C 1.953125 10.167969 2.019531 10.167969 2.085938 10.167969 C 2.222656 10.167969 2.359375 10.167969 2.5 10.167969 C 2.675781 10.167969 2.851562 10.164062 3.027344 10.164062 C 3.160156 10.164062 3.296875 10.164062 3.433594 10.164062 C 3.496094 10.164062 3.5625 10.164062 3.625 10.164062 C 3.71875 10.164062 3.808594 10.164062 3.898438 10.164062 C 3.949219 10.164062 4 10.164062 4.054688 10.164062 C 4.25 10.1875 4.371094 10.273438 4.515625 10.410156 C 4.597656 10.574219 4.605469 10.730469 4.570312 10.910156 C 4.476562 11.078125 4.378906 11.183594 4.195312 11.25 C 4.097656 11.253906 4.003906 11.257812 3.910156 11.257812 C 3.824219 11.257812 3.824219 11.257812 3.734375 11.257812 C 3.667969 11.257812 3.605469 11.257812 3.542969 11.261719 C 3.492188 11.261719 3.492188 11.261719 3.445312 11.261719 C 3.273438 11.261719 3.101562 11.261719 2.933594 11.261719 C 2.757812 11.261719 2.582031 11.265625 2.40625 11.265625 C 2.269531 11.269531 2.136719 11.269531 2 11.269531 C 1.933594 11.269531 1.871094 11.269531 1.804688 11.269531 C 1.175781 11.277344 1.175781 11.277344 0.894531 11.054688 C 0.78125 10.902344 0.777344 10.757812 0.800781 10.570312 C 0.882812 10.410156 0.9375 10.304688 1.09375 10.222656 C 1.242188 10.175781 1.367188 10.167969 1.519531 10.167969 Z M 1.082031 10.519531 C 1.03125 10.636719 1.03125 10.636719 1.035156 10.761719 C 1.089844 10.898438 1.089844 10.898438 1.179688 11.007812 C 1.324219 11.054688 1.429688 11.0625 1.582031 11.0625 C 1.636719 11.0625 1.691406 11.0625 1.746094 11.0625 C 1.832031 11.0625 1.832031 11.0625 1.921875 11.0625 C 2.011719 11.066406 2.011719 11.066406 2.105469 11.066406 C 2.230469 11.066406 2.359375 11.066406 2.484375 11.066406 C 2.648438 11.066406 2.808594 11.066406 2.972656 11.070312 C 3.125 11.070312 3.28125 11.070312 3.4375 11.070312 C 3.523438 11.070312 3.523438 11.070312 3.613281 11.074219 C 3.695312 11.070312 3.695312 11.070312 3.777344 11.070312 C 3.824219 11.070312 3.871094 11.070312 3.921875 11.074219 C 4.089844 11.050781 4.214844 10.984375 4.335938 10.859375 C 4.359375 10.722656 4.359375 10.722656 4.335938 10.570312 C 4.214844 10.445312 4.136719 10.382812 3.964844 10.351562 C 3.914062 10.351562 3.867188 10.351562 3.816406 10.351562 C 3.761719 10.351562 3.703125 10.351562 3.648438 10.351562 C 3.554688 10.351562 3.554688 10.351562 3.464844 10.351562 C 3.402344 10.351562 3.339844 10.351562 3.277344 10.351562 C 3.144531 10.351562 3.015625 10.351562 2.882812 10.351562 C 2.714844 10.355469 2.550781 10.355469 2.382812 10.355469 C 2.222656 10.351562 2.0625 10.355469 1.902344 10.355469 C 1.8125 10.355469 1.8125 10.355469 1.71875 10.355469 C 1.636719 10.355469 1.636719 10.355469 1.550781 10.355469 C 1.5 10.355469 1.453125 10.355469 1.402344 10.355469 C 1.253906 10.378906 1.191406 10.417969 1.082031 10.519531 Z M 1.082031 10.519531 "/>
<path style=" stroke:none;fill-rule:nonzero;fill:rgb(98.431373%,99.215686%,81.960785%);fill-opacity:1;" d="M 2.792969 8.28125 C 2.871094 8.28125 2.871094 8.28125 2.953125 8.28125 C 3.007812 8.28125 3.0625 8.28125 3.121094 8.28125 C 3.179688 8.277344 3.238281 8.277344 3.296875 8.277344 C 3.421875 8.277344 3.542969 8.277344 3.667969 8.277344 C 3.855469 8.277344 4.042969 8.273438 4.230469 8.273438 C 4.347656 8.269531 4.46875 8.269531 4.585938 8.269531 C 4.671875 8.269531 4.671875 8.269531 4.757812 8.269531 C 5.144531 8.269531 5.144531 8.269531 5.335938 8.378906 C 5.445312 8.515625 5.464844 8.617188 5.484375 8.789062 C 5.460938 9.027344 5.390625 9.09375 5.230469 9.261719 C 5.113281 9.320312 5.027344 9.316406 4.894531 9.316406 C 4.820312 9.320312 4.820312 9.320312 4.746094 9.320312 C 4.664062 9.320312 4.664062 9.320312 4.582031 9.320312 C 4.496094 9.320312 4.496094 9.320312 4.410156 9.320312 C 4.292969 9.324219 4.175781 9.324219 4.058594 9.324219 C 3.878906 9.324219 3.695312 9.328125 3.515625 9.328125 C 3.402344 9.328125 3.289062 9.328125 3.171875 9.328125 C 3.089844 9.332031 3.089844 9.332031 3.007812 9.332031 C 2.714844 9.332031 2.53125 9.320312 2.308594 9.113281 C 2.207031 8.988281 2.210938 8.886719 2.21875 8.726562 C 2.25 8.542969 2.304688 8.453125 2.449219 8.339844 C 2.570312 8.277344 2.660156 8.285156 2.792969 8.28125 Z M 2.496094 8.582031 C 2.449219 8.695312 2.449219 8.695312 2.449219 8.824219 C 2.53125 9.003906 2.53125 9.003906 2.6875 9.113281 C 2.761719 9.121094 2.835938 9.125 2.910156 9.125 C 2.980469 9.125 2.980469 9.125 3.050781 9.125 C 3.265625 9.128906 3.476562 9.132812 3.6875 9.132812 C 3.800781 9.132812 3.914062 9.132812 4.027344 9.136719 C 4.1875 9.140625 4.351562 9.140625 4.511719 9.140625 C 4.5625 9.140625 4.613281 9.144531 4.664062 9.144531 C 4.941406 9.148438 4.941406 9.148438 5.167969 9.003906 C 5.246094 8.835938 5.234375 8.753906 5.183594 8.582031 C 5.0625 8.457031 5.019531 8.472656 4.855469 8.472656 C 4.808594 8.472656 4.757812 8.472656 4.707031 8.472656 C 4.65625 8.472656 4.601562 8.472656 4.546875 8.472656 C 4.496094 8.472656 4.441406 8.472656 4.386719 8.472656 C 4.269531 8.472656 4.15625 8.472656 4.042969 8.472656 C 3.867188 8.472656 3.691406 8.472656 3.515625 8.472656 C 3.40625 8.472656 3.296875 8.472656 3.183594 8.472656 C 3.132812 8.472656 3.082031 8.472656 3.027344 8.472656 C 2.976562 8.472656 2.929688 8.472656 2.878906 8.472656 C 2.835938 8.472656 2.792969 8.472656 2.75 8.472656 C 2.625 8.476562 2.625 8.476562 2.496094 8.582031 Z M 2.496094 8.582031 "/>
<path style=" stroke:none;fill-rule:nonzero;fill:rgb(98.431373%,99.215686%,79.607844%);fill-opacity:1;" d="M 6.3125 6.640625 C 6.410156 6.78125 6.410156 6.835938 6.382812 7.007812 C 6.304688 7.203125 6.253906 7.257812 6.078125 7.371094 C 5.941406 7.386719 5.820312 7.390625 5.683594 7.390625 C 5.644531 7.386719 5.601562 7.386719 5.5625 7.386719 C 5.433594 7.386719 5.304688 7.382812 5.175781 7.382812 C 5.082031 7.378906 4.992188 7.378906 4.902344 7.378906 C 4.714844 7.375 4.527344 7.371094 4.335938 7.367188 C 4.09375 7.363281 3.851562 7.359375 3.609375 7.359375 C 3.425781 7.355469 3.238281 7.351562 3.050781 7.351562 C 2.964844 7.347656 2.875 7.347656 2.785156 7.347656 C 2.660156 7.34375 2.535156 7.34375 2.410156 7.339844 C 2.375 7.339844 2.335938 7.339844 2.296875 7.339844 C 2.121094 7.335938 2.035156 7.328125 1.886719 7.222656 C 1.886719 7.191406 1.886719 7.160156 1.886719 7.128906 C 1.9375 7.128906 1.992188 7.128906 2.042969 7.128906 C 2.542969 7.132812 3.039062 7.132812 3.535156 7.136719 C 3.792969 7.136719 4.046875 7.136719 4.304688 7.136719 C 4.550781 7.140625 4.796875 7.140625 5.042969 7.140625 C 5.136719 7.140625 5.230469 7.140625 5.324219 7.144531 C 5.457031 7.144531 5.589844 7.144531 5.71875 7.144531 C 5.777344 7.144531 5.777344 7.144531 5.839844 7.144531 C 6.035156 7.148438 6.035156 7.148438 6.207031 7.066406 C 6.300781 6.9375 6.300781 6.800781 6.3125 6.640625 Z M 6.3125 6.640625 "/>
<path style=" stroke:none;fill-rule:nonzero;fill:rgb(98.823529%,99.607843%,86.666667%);fill-opacity:1;" d="M 1.519531 10.167969 C 1.609375 10.167969 1.609375 10.167969 1.699219 10.167969 C 1.761719 10.167969 1.824219 10.167969 1.890625 10.167969 C 1.953125 10.167969 2.019531 10.167969 2.085938 10.167969 C 2.222656 10.167969 2.359375 10.167969 2.5 10.167969 C 2.675781 10.167969 2.851562 10.164062 3.027344 10.164062 C 3.160156 10.164062 3.296875 10.164062 3.433594 10.164062 C 3.496094 10.164062 3.5625 10.164062 3.625 10.164062 C 3.71875 10.164062 3.808594 10.164062 3.898438 10.164062 C 3.949219 10.164062 4 10.164062 4.054688 10.164062 C 4.25 10.1875 4.371094 10.273438 4.515625 10.410156 C 4.597656 10.574219 4.605469 10.730469 4.570312 10.910156 C 4.476562 11.078125 4.378906 11.183594 4.195312 11.25 C 4.097656 11.253906 4.003906 11.257812 3.910156 11.257812 C 3.824219 11.257812 3.824219 11.257812 3.734375 11.257812 C 3.667969 11.257812 3.605469 11.257812 3.542969 11.261719 C 3.492188 11.261719 3.492188 11.261719 3.445312 11.261719 C 3.273438 11.261719 3.101562 11.261719 2.933594 11.261719 C 2.757812 11.261719 2.582031 11.265625 2.40625 11.265625 C 2.269531 11.269531 2.136719 11.269531 2 11.269531 C 1.933594 11.269531 1.871094 11.269531 1.804688 11.269531 C 1.175781 11.277344 1.175781 11.277344 0.894531 11.054688 C 0.78125 10.902344 0.777344 10.757812 0.800781 10.570312 C 0.882812 10.410156 0.9375 10.304688 1.09375 10.222656 C 1.242188 10.175781 1.367188 10.167969 1.519531 10.167969 Z M 1 10.464844 C 0.933594 10.585938 0.910156 10.671875 0.894531 10.8125 C 0.96875 10.984375 1.074219 11.09375 1.226562 11.199219 C 1.441406 11.253906 1.65625 11.246094 1.878906 11.242188 C 1.941406 11.242188 2.003906 11.242188 2.066406 11.242188 C 2.199219 11.238281 2.332031 11.238281 2.464844 11.234375 C 2.632812 11.230469 2.804688 11.230469 2.972656 11.226562 C 3.136719 11.226562 3.296875 11.226562 3.460938 11.222656 C 3.519531 11.222656 3.582031 11.222656 3.644531 11.222656 C 3.726562 11.21875 3.726562 11.21875 3.8125 11.21875 C 3.863281 11.214844 3.914062 11.214844 3.964844 11.214844 C 4.160156 11.195312 4.292969 11.15625 4.421875 11 C 4.4375 10.96875 4.457031 10.941406 4.476562 10.910156 C 4.453125 10.859375 4.453125 10.859375 4.429688 10.8125 C 4.414062 10.828125 4.398438 10.84375 4.382812 10.859375 C 4.363281 10.765625 4.347656 10.667969 4.335938 10.570312 C 4.351562 10.554688 4.367188 10.539062 4.382812 10.519531 C 4.382812 10.570312 4.382812 10.617188 4.382812 10.667969 C 4.414062 10.652344 4.445312 10.632812 4.476562 10.617188 C 4.433594 10.46875 4.402344 10.390625 4.277344 10.296875 C 4.128906 10.222656 4.03125 10.210938 3.863281 10.210938 C 3.808594 10.210938 3.753906 10.210938 3.695312 10.210938 C 3.636719 10.210938 3.574219 10.210938 3.511719 10.210938 C 3.453125 10.210938 3.390625 10.210938 3.324219 10.210938 C 3.195312 10.210938 3.066406 10.210938 2.933594 10.210938 C 2.765625 10.210938 2.597656 10.210938 2.433594 10.210938 C 2.273438 10.210938 2.113281 10.210938 1.953125 10.210938 C 1.894531 10.210938 1.832031 10.210938 1.769531 10.210938 C 1.6875 10.210938 1.6875 10.210938 1.601562 10.210938 C 1.554688 10.210938 1.503906 10.210938 1.453125 10.210938 C 1.257812 10.238281 1.132812 10.320312 1 10.464844 Z M 1 10.464844 "/>
<path style=" stroke:none;fill-rule:nonzero;fill:rgb(97.647059%,98.431373%,85.09804%);fill-opacity:1;" d="M 15.21875 5.480469 C 15.359375 5.578125 15.359375 5.578125 15.457031 5.722656 C 15.484375 5.914062 15.484375 6.011719 15.382812 6.179688 C 15.21875 6.285156 15.125 6.285156 14.9375 6.253906 C 14.804688 6.1875 14.753906 6.132812 14.65625 6.011719 C 14.621094 5.820312 14.625 5.722656 14.726562 5.554688 C 14.890625 5.449219 15.035156 5.4375 15.21875 5.480469 Z M 15.21875 5.480469 "/>
<path style=" stroke:none;fill-rule:nonzero;fill:rgb(98.431373%,99.607843%,89.803922%);fill-opacity:1;" d="M 2.121094 6.398438 C 2.121094 6.449219 2.121094 6.496094 2.121094 6.546875 C 2.042969 6.578125 1.964844 6.609375 1.886719 6.640625 C 1.839844 6.867188 1.820312 7.019531 1.933594 7.222656 C 2.078125 7.300781 2.230469 7.28125 2.390625 7.28125 C 2.429688 7.28125 2.46875 7.285156 2.503906 7.285156 C 2.628906 7.285156 2.753906 7.285156 2.878906 7.289062 C 2.96875 7.289062 3.054688 7.289062 3.140625 7.292969 C 3.367188 7.292969 3.597656 7.296875 3.824219 7.296875 C 4.054688 7.300781 4.289062 7.304688 4.519531 7.304688 C 4.976562 7.3125 5.433594 7.316406 5.890625 7.320312 C 5.890625 7.335938 5.890625 7.351562 5.890625 7.371094 C 5.371094 7.375 4.855469 7.378906 4.339844 7.378906 C 4.097656 7.378906 3.859375 7.382812 3.617188 7.382812 C 3.386719 7.386719 3.152344 7.386719 2.921875 7.386719 C 2.832031 7.386719 2.746094 7.390625 2.65625 7.390625 C 2.53125 7.390625 2.410156 7.390625 2.285156 7.390625 C 2.230469 7.394531 2.230469 7.394531 2.175781 7.394531 C 1.929688 7.390625 1.789062 7.335938 1.601562 7.175781 C 1.527344 7.023438 1.542969 6.859375 1.554688 6.691406 C 1.652344 6.394531 1.84375 6.390625 2.121094 6.398438 Z M 2.121094 6.398438 "/>
<path style=" stroke:none;fill-rule:nonzero;fill:rgb(99.215686%,99.607843%,87.450981%);fill-opacity:1;" d="M 2.777344 8.285156 C 2.824219 8.285156 2.871094 8.285156 2.921875 8.285156 C 3 8.285156 3 8.285156 3.078125 8.285156 C 3.132812 8.285156 3.1875 8.285156 3.242188 8.285156 C 3.410156 8.285156 3.582031 8.289062 3.753906 8.289062 C 3.867188 8.289062 3.984375 8.289062 4.097656 8.289062 C 4.382812 8.289062 4.664062 8.289062 4.949219 8.289062 C 4.949219 8.308594 4.949219 8.324219 4.949219 8.339844 C 4.292969 8.417969 3.648438 8.445312 2.992188 8.429688 C 2.933594 8.425781 2.878906 8.425781 2.820312 8.425781 C 2.769531 8.425781 2.722656 8.421875 2.667969 8.421875 C 2.527344 8.4375 2.496094 8.472656 2.402344 8.582031 C 2.371094 8.582031 2.339844 8.582031 2.308594 8.582031 C 2.308594 8.726562 2.308594 8.871094 2.308594 9.019531 C 2.277344 8.984375 2.246094 8.953125 2.214844 8.921875 C 2.226562 8.582031 2.226562 8.582031 2.351562 8.414062 C 2.503906 8.296875 2.589844 8.285156 2.777344 8.285156 Z M 2.777344 8.285156 "/>
<path style=" stroke:none;fill-rule:nonzero;fill:rgb(94.509804%,97.254902%,82.352942%);fill-opacity:1;" d="M 3.957031 12.65625 C 3.972656 12.703125 3.988281 12.75 4.003906 12.800781 C 3.953125 12.882812 3.953125 12.882812 3.867188 12.976562 C 3.839844 13.011719 3.808594 13.046875 3.777344 13.082031 C 3.574219 13.296875 3.367188 13.503906 3.15625 13.707031 C 2.953125 13.910156 2.820312 14.074219 2.734375 14.351562 C 2.679688 14.269531 2.679688 14.269531 2.640625 14.15625 C 2.695312 13.945312 2.800781 13.828125 2.949219 13.675781 C 2.992188 13.632812 3.035156 13.589844 3.082031 13.542969 C 3.128906 13.496094 3.171875 13.453125 3.21875 13.40625 C 3.265625 13.359375 3.308594 13.3125 3.355469 13.269531 C 3.4375 13.183594 3.523438 13.097656 3.605469 13.015625 C 3.722656 12.894531 3.839844 12.773438 3.957031 12.65625 Z M 3.957031 12.65625 "/>
<path style=" stroke:none;fill-rule:nonzero;fill:rgb(94.509804%,96.470588%,79.607844%);fill-opacity:1;" d="M 2.777344 8.386719 C 2.824219 8.386719 2.871094 8.390625 2.921875 8.390625 C 3 8.390625 3 8.390625 3.078125 8.394531 C 3.132812 8.394531 3.1875 8.394531 3.242188 8.398438 C 3.410156 8.402344 3.582031 8.40625 3.753906 8.410156 C 3.867188 8.410156 3.984375 8.414062 4.097656 8.417969 C 4.382812 8.421875 4.664062 8.429688 4.949219 8.4375 C 4.949219 8.453125 4.949219 8.46875 4.949219 8.484375 C 4.90625 8.484375 4.90625 8.484375 4.859375 8.488281 C 4.5625 8.492188 4.265625 8.496094 3.964844 8.503906 C 3.855469 8.503906 3.742188 8.507812 3.632812 8.507812 C 3.472656 8.511719 3.3125 8.515625 3.152344 8.519531 C 3.078125 8.519531 3.078125 8.519531 3 8.519531 C 2.957031 8.519531 2.910156 8.523438 2.863281 8.523438 C 2.820312 8.523438 2.78125 8.523438 2.738281 8.527344 C 2.636719 8.527344 2.636719 8.527344 2.542969 8.582031 C 2.5 8.71875 2.484375 8.792969 2.542969 8.925781 C 2.558594 8.957031 2.574219 8.984375 2.589844 9.019531 C 2.589844 9.082031 2.589844 9.144531 2.589844 9.210938 C 2.363281 9.167969 2.363281 9.167969 2.308594 9.113281 C 2.304688 9.023438 2.304688 8.933594 2.304688 8.84375 C 2.304688 8.796875 2.308594 8.746094 2.308594 8.695312 C 2.308594 8.660156 2.308594 8.621094 2.308594 8.582031 C 2.339844 8.582031 2.371094 8.582031 2.402344 8.582031 C 2.417969 8.535156 2.433594 8.484375 2.449219 8.4375 C 2.566406 8.375 2.644531 8.382812 2.777344 8.386719 Z M 2.777344 8.386719 "/>
<path style=" stroke:none;fill-rule:nonzero;fill:rgb(99.215686%,99.607843%,85.490197%);fill-opacity:1;" d="M 15.3125 8.582031 C 15.3125 8.613281 15.3125 8.644531 15.3125 8.679688 C 15.222656 8.695312 15.128906 8.710938 15.03125 8.726562 C 15.023438 8.769531 15.023438 8.769531 15.019531 8.8125 C 15 8.941406 14.980469 9.070312 14.964844 9.199219 C 14.957031 9.246094 14.949219 9.289062 14.945312 9.335938 C 14.933594 9.398438 14.933594 9.398438 14.925781 9.464844 C 14.917969 9.503906 14.914062 9.546875 14.910156 9.585938 C 14.890625 9.6875 14.871094 9.789062 14.84375 9.890625 C 14.8125 9.890625 14.78125 9.890625 14.75 9.890625 C 14.734375 9.761719 14.71875 9.636719 14.703125 9.503906 C 14.734375 9.488281 14.765625 9.472656 14.796875 9.453125 C 14.816406 9.351562 14.816406 9.351562 14.824219 9.234375 C 14.828125 9.191406 14.832031 9.152344 14.835938 9.113281 C 14.839844 9.082031 14.839844 9.050781 14.84375 9.019531 C 14.8125 9.019531 14.78125 9.019531 14.75 9.019531 C 14.75 8.90625 14.75 8.792969 14.75 8.679688 C 14.945312 8.601562 15.105469 8.570312 15.3125 8.582031 Z M 15.3125 8.582031 "/>
<path style=" stroke:none;fill-rule:nonzero;fill:rgb(98.039216%,99.215686%,83.529413%);fill-opacity:1;" d="M 16.445312 11.441406 C 16.460938 11.441406 16.476562 11.441406 16.492188 11.441406 C 16.507812 11.699219 16.472656 11.847656 16.351562 12.074219 C 16.335938 12.121094 16.320312 12.167969 16.304688 12.21875 C 15.910156 12.382812 15.347656 12.261719 14.9375 12.21875 C 14.9375 12.203125 14.9375 12.1875 14.9375 12.167969 C 15.023438 12.167969 15.023438 12.167969 15.109375 12.164062 C 15.183594 12.160156 15.261719 12.15625 15.335938 12.15625 C 15.394531 12.152344 15.394531 12.152344 15.449219 12.152344 C 15.757812 12.136719 16 12.0625 16.277344 11.914062 C 16.386719 11.789062 16.382812 11.65625 16.398438 11.492188 C 16.414062 11.476562 16.429688 11.457031 16.445312 11.441406 Z M 16.445312 11.441406 "/>
<path style=" stroke:none;fill-rule:nonzero;fill:rgb(92.156863%,94.509804%,77.254903%);fill-opacity:1;" d="M 1.886719 7.128906 C 3.207031 7.144531 4.527344 7.160156 5.890625 7.175781 C 5.890625 7.191406 5.890625 7.207031 5.890625 7.222656 C 5.820312 7.226562 5.820312 7.226562 5.746094 7.226562 C 5.304688 7.230469 4.863281 7.234375 4.421875 7.242188 C 4.191406 7.242188 3.964844 7.246094 3.738281 7.25 C 3.519531 7.25 3.300781 7.253906 3.078125 7.257812 C 2.996094 7.257812 2.914062 7.257812 2.828125 7.257812 C 2.710938 7.261719 2.59375 7.261719 2.476562 7.261719 C 2.425781 7.261719 2.425781 7.261719 2.371094 7.261719 C 2.191406 7.261719 2.191406 7.261719 2.027344 7.320312 C 1.980469 7.289062 1.933594 7.257812 1.886719 7.222656 C 1.886719 7.191406 1.886719 7.160156 1.886719 7.128906 Z M 1.886719 7.128906 "/>
<path style=" stroke:none;fill-rule:nonzero;fill:rgb(95.294118%,98.039216%,81.176472%);fill-opacity:1;" d="M 7.867188 1.695312 C 7.855469 1.761719 7.839844 1.824219 7.820312 1.890625 C 7.480469 1.875 7.136719 1.859375 6.785156 1.84375 C 6.785156 1.828125 6.785156 1.808594 6.785156 1.792969 C 7.144531 1.671875 7.496094 1.6875 7.867188 1.695312 Z M 7.867188 1.695312 "/>
<path style=" stroke:none;fill-rule:nonzero;fill:rgb(90.980393%,95.294118%,81.176472%);fill-opacity:1;" d="M 5.703125 10.230469 C 5.71875 10.230469 5.734375 10.230469 5.75 10.230469 C 5.855469 10.660156 5.769531 11.023438 5.65625 11.441406 C 5.640625 11.441406 5.625 11.441406 5.605469 11.441406 C 5.554688 11.230469 5.554688 11.03125 5.558594 10.8125 C 5.589844 10.796875 5.621094 10.78125 5.65625 10.761719 C 5.675781 10.636719 5.675781 10.636719 5.683594 10.492188 C 5.6875 10.445312 5.691406 10.394531 5.695312 10.34375 C 5.695312 10.308594 5.699219 10.269531 5.703125 10.230469 Z M 5.703125 10.230469 "/>
<path style=" stroke:none;fill-rule:nonzero;fill:rgb(91.37255%,95.294118%,81.568629%);fill-opacity:1;" d="M 14.84375 8.96875 C 14.90625 9.167969 14.871094 9.300781 14.84375 9.503906 C 14.8125 9.503906 14.78125 9.503906 14.75 9.503906 C 14.75 9.632812 14.75 9.757812 14.75 9.890625 C 14.6875 9.90625 14.625 9.921875 14.558594 9.9375 C 14.605469 9.636719 14.652344 9.332031 14.703125 9.019531 C 14.75 9.003906 14.792969 8.984375 14.84375 8.96875 Z M 14.84375 8.96875 "/>
<path style=" stroke:none;fill-rule:nonzero;fill:rgb(98.823529%,99.607843%,85.09804%);fill-opacity:1;" d="M 11.402344 5.527344 C 11.417969 5.574219 11.433594 5.625 11.449219 5.671875 C 11.496094 5.65625 11.542969 5.640625 11.589844 5.625 C 11.589844 5.847656 11.589844 6.070312 11.589844 6.304688 C 11.558594 6.320312 11.53125 6.335938 11.496094 6.351562 C 11.480469 6.238281 11.464844 6.128906 11.449219 6.011719 C 11.402344 6.035156 11.402344 6.035156 11.355469 6.0625 C 11.355469 5.980469 11.355469 5.902344 11.351562 5.820312 C 11.351562 5.777344 11.351562 5.730469 11.351562 5.6875 C 11.355469 5.574219 11.355469 5.574219 11.402344 5.527344 Z M 11.402344 5.527344 "/>
<path style=" stroke:none;fill-rule:nonzero;fill:rgb(93.333334%,96.470588%,81.960785%);fill-opacity:1;" d="M 15.171875 4.167969 C 15.238281 4.234375 15.300781 4.296875 15.359375 4.363281 C 15.332031 4.394531 15.300781 4.425781 15.265625 4.460938 C 15.066406 4.363281 14.863281 4.269531 14.65625 4.167969 C 14.703125 4.074219 14.703125 4.074219 14.808594 4.035156 C 14.976562 4.023438 15.039062 4.066406 15.171875 4.167969 Z M 15.171875 4.167969 "/>
<path style=" stroke:none;fill-rule:nonzero;fill:rgb(92.156863%,96.470588%,80.000001%);fill-opacity:1;" d="M 9.046875 0.257812 C 9.078125 0.269531 9.109375 0.28125 9.140625 0.289062 C 9.140625 0.324219 9.140625 0.355469 9.140625 0.386719 C 9.109375 0.390625 9.078125 0.390625 9.046875 0.390625 C 8.769531 0.410156 8.605469 0.449219 8.386719 0.628906 C 8.386719 0.46875 8.402344 0.441406 8.5 0.324219 C 8.675781 0.144531 8.824219 0.195312 9.046875 0.257812 Z M 9.046875 0.257812 "/>
<path style=" stroke:none;fill-rule:nonzero;fill:rgb(91.764706%,96.862745%,80.000001%);fill-opacity:1;" d="M 9.328125 6.0625 C 9.375 6.125 9.421875 6.1875 9.472656 6.253906 C 9.175781 6.300781 8.878906 6.351562 8.574219 6.398438 C 8.671875 6.207031 8.671875 6.207031 8.777344 6.164062 C 8.820312 6.15625 8.863281 6.148438 8.90625 6.140625 C 8.949219 6.132812 8.988281 6.121094 9.03125 6.113281 C 9.085938 6.113281 9.085938 6.113281 9.140625 6.109375 C 9.171875 6.140625 9.203125 6.171875 9.234375 6.207031 C 9.234375 6.175781 9.234375 6.140625 9.234375 6.109375 C 9.265625 6.09375 9.296875 6.078125 9.328125 6.0625 Z M 9.328125 6.0625 "/>
<path style=" stroke:none;fill-rule:nonzero;fill:rgb(94.117647%,97.254902%,82.352942%);fill-opacity:1;" d="M 16.917969 5.867188 C 17.007812 5.898438 17.101562 5.929688 17.199219 5.964844 C 17.253906 6.195312 17.253906 6.195312 17.199219 6.304688 C 17.167969 6.304688 17.136719 6.304688 17.105469 6.304688 C 17.089844 6.335938 17.074219 6.367188 17.058594 6.398438 C 16.996094 6.238281 16.933594 6.078125 16.867188 5.914062 C 16.882812 5.898438 16.898438 5.882812 16.917969 5.867188 Z M 16.917969 5.867188 "/>
<path style=" stroke:none;fill-rule:nonzero;fill:rgb(89.411765%,94.901961%,80.784315%);fill-opacity:1;" d="M 11.121094 14.449219 C 11.152344 14.464844 11.183594 14.480469 11.214844 14.496094 C 11.125 14.625 11.03125 14.746094 10.933594 14.867188 C 10.898438 14.910156 10.898438 14.910156 10.859375 14.953125 C 10.789062 15.03125 10.789062 15.03125 10.648438 15.128906 C 10.710938 14.816406 10.902344 14.652344 11.121094 14.449219 Z M 11.121094 14.449219 "/>
<path style=" stroke:none;fill-rule:nonzero;fill:rgb(92.156863%,95.294118%,81.568629%);fill-opacity:1;" d="M 15.410156 8.484375 C 15.394531 8.515625 15.378906 8.550781 15.359375 8.582031 C 15.222656 8.613281 15.222656 8.613281 15.050781 8.636719 C 14.996094 8.644531 14.9375 8.652344 14.882812 8.660156 C 14.835938 8.667969 14.792969 8.671875 14.75 8.679688 C 14.765625 8.628906 14.78125 8.582031 14.796875 8.535156 C 14.886719 8.496094 14.886719 8.496094 15 8.472656 C 15.035156 8.464844 15.074219 8.457031 15.109375 8.449219 C 15.222656 8.4375 15.300781 8.449219 15.410156 8.484375 Z M 15.410156 8.484375 "/>
<path style=" stroke:none;fill-rule:nonzero;fill:rgb(99.215686%,100%,86.666667%);fill-opacity:1;" d="M 16.492188 11.34375 C 16.523438 11.363281 16.554688 11.378906 16.585938 11.394531 C 16.605469 11.628906 16.605469 11.789062 16.5 12.003906 C 16.46875 12.042969 16.433594 12.082031 16.398438 12.121094 C 16.351562 12.121094 16.304688 12.121094 16.257812 12.121094 C 16.277344 12.09375 16.300781 12.070312 16.324219 12.042969 C 16.414062 11.902344 16.429688 11.789062 16.453125 11.625 C 16.460938 11.570312 16.46875 11.519531 16.476562 11.464844 C 16.480469 11.425781 16.488281 11.386719 16.492188 11.34375 Z M 16.492188 11.34375 "/>
<path style=" stroke:none;fill-rule:nonzero;fill:rgb(98.431373%,99.215686%,83.137256%);fill-opacity:1;" d="M 3.816406 12.945312 C 3.746094 13.113281 3.65625 13.21875 3.527344 13.34375 C 3.492188 13.378906 3.460938 13.414062 3.425781 13.449219 C 3.398438 13.476562 3.371094 13.5 3.34375 13.527344 C 3.3125 13.496094 3.285156 13.464844 3.25 13.429688 C 3.328125 13.347656 3.402344 13.269531 3.480469 13.1875 C 3.523438 13.144531 3.566406 13.097656 3.609375 13.050781 C 3.722656 12.945312 3.722656 12.945312 3.816406 12.945312 Z M 3.816406 12.945312 "/>
<path style=" stroke:none;fill-rule:nonzero;fill:rgb(94.117647%,96.862745%,82.745099%);fill-opacity:1;" d="M 14.75 12.21875 C 14.71875 12.296875 14.6875 12.378906 14.65625 12.460938 C 14.546875 12.445312 14.4375 12.429688 14.324219 12.414062 C 14.324219 12.363281 14.324219 12.316406 14.324219 12.265625 C 14.472656 12.234375 14.59375 12.21875 14.75 12.21875 Z M 14.75 12.21875 "/>
<path style=" stroke:none;fill-rule:nonzero;fill:rgb(81.176472%,92.941177%,76.078433%);fill-opacity:1;" d="M 7.539062 1.695312 C 7.554688 1.730469 7.570312 1.761719 7.585938 1.792969 C 7.40625 1.835938 7.238281 1.847656 7.054688 1.84375 C 7.003906 1.84375 6.953125 1.84375 6.902344 1.84375 C 6.863281 1.84375 6.824219 1.84375 6.785156 1.84375 C 6.785156 1.828125 6.785156 1.808594 6.785156 1.792969 C 7.046875 1.714844 7.265625 1.6875 7.539062 1.695312 Z M 7.539062 1.695312 "/>
<path style=" stroke:none;fill-rule:nonzero;fill:rgb(86.274511%,92.156863%,77.64706%);fill-opacity:1;" d="M 15.878906 12.121094 C 15.878906 12.167969 15.878906 12.21875 15.878906 12.265625 C 15.570312 12.25 15.257812 12.234375 14.9375 12.21875 C 14.9375 12.203125 14.9375 12.1875 14.9375 12.167969 C 15.078125 12.160156 15.214844 12.152344 15.355469 12.144531 C 15.414062 12.140625 15.414062 12.140625 15.476562 12.136719 C 15.511719 12.136719 15.550781 12.132812 15.589844 12.132812 C 15.625 12.128906 15.660156 12.128906 15.695312 12.125 C 15.757812 12.121094 15.820312 12.121094 15.878906 12.121094 Z M 15.878906 12.121094 "/>
<path style=" stroke:none;fill-rule:nonzero;fill:rgb(94.117647%,96.862745%,80.000001%);fill-opacity:1;" d="M 4.429688 10.8125 C 4.429688 10.957031 4.429688 10.957031 4.375 11.0625 C 4.289062 11.152344 4.289062 11.152344 4.160156 11.164062 C 4.125 11.160156 4.089844 11.15625 4.050781 11.152344 C 4.050781 11.101562 4.050781 11.054688 4.050781 11.007812 C 4.179688 10.941406 4.304688 10.875 4.429688 10.8125 Z M 4.429688 10.8125 "/>
<path style=" stroke:none;fill-rule:nonzero;fill:rgb(90.588236%,94.509804%,81.960785%);fill-opacity:1;" d="M 4.476562 14.546875 C 4.507812 14.5625 4.539062 14.578125 4.570312 14.59375 C 4.519531 14.660156 4.46875 14.722656 4.414062 14.789062 C 4.371094 14.84375 4.371094 14.84375 4.328125 14.898438 C 4.242188 14.980469 4.242188 14.980469 4.097656 14.980469 C 4.117188 14.859375 4.132812 14.800781 4.222656 14.714844 C 4.253906 14.695312 4.285156 14.675781 4.316406 14.65625 C 4.34375 14.632812 4.375 14.613281 4.40625 14.589844 C 4.429688 14.578125 4.453125 14.5625 4.476562 14.546875 Z M 4.476562 14.546875 "/>
<path style=" stroke:none;fill-rule:nonzero;fill:rgb(91.37255%,95.294118%,81.960785%);fill-opacity:1;" d="M 14.65625 9.9375 C 14.6875 9.957031 14.714844 9.972656 14.75 9.988281 C 14.6875 10.117188 14.625 10.242188 14.558594 10.375 C 14.511719 10.34375 14.46875 10.3125 14.417969 10.277344 C 14.457031 10.136719 14.457031 10.136719 14.511719 9.988281 C 14.558594 9.972656 14.605469 9.957031 14.65625 9.9375 Z M 14.65625 9.9375 "/>
<path style=" stroke:none;fill-rule:nonzero;fill:rgb(89.803922%,95.686275%,78.431374%);fill-opacity:1;" d="M 6.21875 6.738281 C 6.25 6.753906 6.28125 6.769531 6.3125 6.789062 C 6.296875 6.945312 6.289062 7.011719 6.167969 7.117188 C 6.140625 7.136719 6.109375 7.15625 6.078125 7.175781 C 6.078125 7.035156 6.089844 6.921875 6.125 6.789062 C 6.15625 6.773438 6.1875 6.757812 6.21875 6.738281 Z M 6.21875 6.738281 "/>
<path style=" stroke:none;fill-rule:nonzero;fill:rgb(92.156863%,96.078432%,82.352942%);fill-opacity:1;" d="M 13.195312 12.703125 C 13.195312 12.847656 13.195312 12.847656 13.074219 12.980469 C 13.035156 13.015625 13 13.054688 12.957031 13.089844 C 12.910156 13.074219 12.863281 13.058594 12.816406 13.042969 C 12.886719 12.828125 13.003906 12.804688 13.195312 12.703125 Z M 13.195312 12.703125 "/>
<path style=" stroke:none;fill-rule:nonzero;fill:rgb(98.039216%,99.215686%,78.431374%);fill-opacity:1;" d="M 6.503906 1.695312 C 6.71875 1.695312 6.9375 1.695312 7.164062 1.695312 C 7.027344 1.835938 6.921875 1.828125 6.738281 1.84375 C 6.601562 1.796875 6.601562 1.796875 6.503906 1.746094 C 6.503906 1.730469 6.503906 1.714844 6.503906 1.695312 Z M 6.503906 1.695312 "/>
<path style=" stroke:none;fill-rule:nonzero;fill:rgb(93.725491%,96.862745%,82.745099%);fill-opacity:1;" d="M 14.230469 12.363281 C 14.121094 12.464844 14.121094 12.464844 13.996094 12.558594 C 13.949219 12.542969 13.902344 12.527344 13.851562 12.507812 C 13.851562 12.476562 13.851562 12.445312 13.851562 12.414062 C 14.125 12.308594 14.125 12.308594 14.230469 12.363281 Z M 14.230469 12.363281 "/>
<path style=" stroke:none;fill-rule:nonzero;fill:rgb(85.490197%,91.764706%,79.607844%);fill-opacity:1;" d="M 9.378906 14.15625 C 9.40625 14.15625 9.4375 14.15625 9.472656 14.15625 C 9.472656 14.285156 9.472656 14.414062 9.472656 14.546875 C 9.425781 14.53125 9.378906 14.511719 9.328125 14.496094 C 9.34375 14.386719 9.359375 14.273438 9.378906 14.15625 Z M 9.378906 14.15625 "/>
<path style=" stroke:none;fill-rule:nonzero;fill:rgb(93.333334%,97.254902%,79.215688%);fill-opacity:1;" d="M 5.65625 9.890625 C 5.699219 9.921875 5.746094 9.953125 5.796875 9.988281 C 5.78125 10.050781 5.765625 10.117188 5.75 10.183594 C 5.6875 10.164062 5.625 10.148438 5.558594 10.132812 C 5.558594 10.070312 5.558594 10.003906 5.558594 9.9375 C 5.589844 9.921875 5.621094 9.90625 5.65625 9.890625 Z M 5.65625 9.890625 "/>
<path style=" stroke:none;fill-rule:nonzero;fill:rgb(94.509804%,97.254902%,81.176472%);fill-opacity:1;" d="M 11.921875 1.746094 C 12.015625 1.792969 12.109375 1.84375 12.203125 1.890625 C 12.1875 1.9375 12.171875 1.988281 12.15625 2.035156 C 12.066406 2 12.066406 2 11.96875 1.9375 C 11.933594 1.835938 11.933594 1.835938 11.921875 1.746094 Z M 11.921875 1.746094 "/>
</g>
</svg>
